HIERARCHY
ROOT hip
{
  OFFSET 0 0 0
  CHANNELS 6 Xposition Yposition Zposition Zrotation Yrotation Xrotation
  JOINT abdomen
  {
    OFFSET 0 20.6881 -0.73152
    CHANNELS 3 Zrotation Xrotation Yrotation
    JOINT chest
    {
      OFFSET 0 11.7043 -0.48768
      CHANNELS 3 Zrotation Xrotation Yrotation
      JOINT neck
      {
        OFFSET 0 22.1894 -2.19456
        CHANNELS 3 Zrotation Xrotation Yrotation
        JOINT head
        {
          OFFSET -0.24384 7.07133 1.2192
          CHANNELS 3 Zrotation Xrotation Yrotation
          JOINT leftEye
          {
            OFFSET 4.14528 8.04674 8.04672
            CHANNELS 3 Zrotation Xrotation Yrotation
            End Site
            {
              OFFSET 1 0 0
            }
          }
          JOINT rightEye
          {
            OFFSET -3.6576 8.04674 8.04672
            CHANNELS 3 Zrotation Xrotation Yrotation
            End Site
            {
              OFFSET 1 0 0
            }
          }
        }
      }
      JOINT rCollar
      {
        OFFSET -2.68224 19.2634 -4.8768
        CHANNELS 3 Zrotation Xrotation Yrotation
        JOINT rShldr
        {
          OFFSET -8.77824 -1.95073 1.46304
          CHANNELS 3 Zrotation Xrotation Yrotation
          JOINT rForeArm
          {
            OFFSET -28.1742 -1.7115 0.48768
            CHANNELS 3 Zrotation Xrotation Yrotation
            JOINT rHand
            {
              OFFSET -22.5879 0.773209 7.07136
              CHANNELS 3 Zrotation Xrotation Yrotation
              JOINT rThumb1
              {
                OFFSET -1.2192 -0.487915 3.41376
                CHANNELS 3 Zrotation Xrotation Yrotation
                JOINT rThumb2
                {
                  OFFSET -3.37035 -0.52449 3.41376
                  CHANNELS 3 Zrotation Xrotation Yrotation
                  End Site
                  {
                    OFFSET -1.78271 -1.18214 1.43049
                  }
                }
              }
              JOINT rIndex1
              {
                OFFSET -7.75947 0.938293 5.60832
                CHANNELS 3 Zrotation Xrotation Yrotation
                JOINT rIndex2
                {
                  OFFSET -2.54057 -0.884171 1.56538
                  CHANNELS 3 Zrotation Xrotation Yrotation
                  End Site
                  {
                    OFFSET -1.62519 -0.234802 1.16502
                  }
                }
              }
              JOINT rMid1
              {
                OFFSET -8.24714 1.18213 3.41376
                CHANNELS 3 Zrotation Xrotation Yrotation
                JOINT rMid2
                {
                  OFFSET -3.10165 -0.590103 1.0647
                  CHANNELS 3 Zrotation Xrotation Yrotation
                  End Site
                  {
                    OFFSET -2.48547 -0.328903 0.83742
                  }
                }
              }
              JOINT rRing1
              {
                OFFSET -8.82822 0.546677 1.51678
                CHANNELS 3 Zrotation Xrotation Yrotation
                JOINT rRing2
                {
                  OFFSET -2.60934 -0.819778 -0.0198488
                  CHANNELS 3 Zrotation Xrotation Yrotation
                  End Site
                  {
                    OFFSET -2.33842 -0.294052 0.168128
                  }
                }
              }
              JOINT rPinky1
              {
                OFFSET -8.27202 -0.0477905 -0.4584
                CHANNELS 3 Zrotation Xrotation Yrotation
                JOINT rPinky2
                {
                  OFFSET -1.82734 -0.647385 -0.700984
                  CHANNELS 3 Zrotation Xrotation Yrotation
                  End Site
                  {
                    OFFSET -1.69225 -0.51767 -0.607171
                  }
                }
              }
            }
          }
        }
      }
      JOINT lCollar
      {
        OFFSET 2.68224 19.2634 -4.8768
        CHANNELS 3 Zrotation Xrotation Yrotation
        JOINT lShldr
        {
          OFFSET 8.77824 -1.95073 1.46304
          CHANNELS 3 Zrotation Xrotation Yrotation
          JOINT lForeArm
          {
            OFFSET 28.1742 -1.7115 0.48768
            CHANNELS 3 Zrotation Xrotation Yrotation
            JOINT lHand
            {
              OFFSET 22.5879 0.773209 7.07136
              CHANNELS 3 Zrotation Xrotation Yrotation
              JOINT lThumb1
              {
                OFFSET 1.2192 -0.487915 3.41376
                CHANNELS 3 Zrotation Xrotation Yrotation
                JOINT lThumb2
                {
                  OFFSET 3.37035 -0.52449 3.41376
                  CHANNELS 3 Zrotation Xrotation Yrotation
                  End Site
                  {
                    OFFSET 1.78271 -1.18214 1.43049
                  }
                }
              }
              JOINT lIndex1
              {
                OFFSET 7.75947 0.938293 5.60832
                CHANNELS 3 Zrotation Xrotation Yrotation
                JOINT lIndex2
                {
                  OFFSET 2.54057 -0.884171 1.56538
                  CHANNELS 3 Zrotation Xrotation Yrotation
                  End Site
                  {
                    OFFSET 1.62519 -0.234802 1.16502
                  }
                }
              }
              JOINT lMid1
              {
                OFFSET 8.24714 1.18213 3.41376
                CHANNELS 3 Zrotation Xrotation Yrotation
                JOINT lMid2
                {
                  OFFSET 3.10165 -0.590103 1.0647
                  CHANNELS 3 Zrotation Xrotation Yrotation
                  End Site
                  {
                    OFFSET 2.48547 -0.328903 0.83742
                  }
                }
              }
              JOINT lRing1
              {
                OFFSET 8.82822 0.546677 1.51678
                CHANNELS 3 Zrotation Xrotation Yrotation
                JOINT lRing2
                {
                  OFFSET 2.60934 -0.819778 -0.0198488
                  CHANNELS 3 Zrotation Xrotation Yrotation
                  End Site
                  {
                    OFFSET 2.33842 -0.294052 0.168128
                  }
                }
              }
              JOINT lPinky1
              {
                OFFSET 8.27202 -0.0477905 -0.4584
                CHANNELS 3 Zrotation Xrotation Yrotation
                JOINT lPinky2
                {
                  OFFSET 1.82734 -0.647385 -0.700984
                  CHANNELS 3 Zrotation Xrotation Yrotation
                  End Site
                  {
                    OFFSET 1.69225 -0.51767 -0.607171
                  }
                }
              }
            }
          }
        }
      }
    }
  }
  JOINT rButtock
  {
    OFFSET -8.77824 4.35084 1.2192
    CHANNELS 3 Zrotation Xrotation Yrotation
    JOINT rThigh
    {
      OFFSET 0 -1.70687 -2.19456
      CHANNELS 3 Zrotation Xrotation Yrotation
      JOINT rShin
      {
        OFFSET 0 -36.8199 0.73152
        CHANNELS 3 Zrotation Xrotation Yrotation
        JOINT rFoot
        {
          OFFSET 0.73152 -45.1104 -5.12064
          CHANNELS 3 Zrotation Xrotation Yrotation
          End Site
          {
            OFFSET -1.1221 -3.69964 12.103
          }
        }
      }
    }
  }
  JOINT lButtock
  {
    OFFSET 8.77824 4.35084 1.2192
    CHANNELS 3 Zrotation Xrotation Yrotation
    JOINT lThigh
    {
      OFFSET 0 -1.70687 -2.19456
      CHANNELS 3 Zrotation Xrotation Yrotation
      JOINT lShin
      {
        OFFSET 0 -36.8199 0.73152
        CHANNELS 3 Zrotation Xrotation Yrotation
        JOINT lFoot
        {
          OFFSET -0.73152 -45.1104 -5.12064
          CHANNELS 3 Zrotation Xrotation Yrotation
          End Site
          {
            OFFSET 1.1221 -3.69964 12.103
          }
        }
      }
    }
  }
}
MOTION
Frames:	7
Frame Time:	0.03333
0.0 0.0 0.0 0.0 0.0 0.0 0.0 0.0 0.0 0.0 0.0 0.0 0.0 0.0 0.0 0.0 0.0 0.0 0.0 0.0 0.0 0.0 0.0 0.0 0.0 0.0 0.0 0.0 0.0 0.0 0.0 0.0 0.0 0.0 0.0 0.0 0.0 0.0 0.0 0.0 0.0 0.0 0.0 0.0 0.0 0.0 0.0 0.0 0.0 0.0 0.0 0.0 0.0 0.0 0.0 0.0 0.0 0.0 0.0 0.0 0.0 0.0 0.0 0.0 0.0 0.0 0.0 0.0 0.0 0.0 0.0 0.0 0.0 0.0 0.0 0.0 0.0 0.0 0.0 0.0 0.0 0.0 0.0 0.0 0.0 0.0 0.0 0.0 0.0 0.0 0.0 0.0 0.0 0.0 0.0 0.0 0.0 0.0 0.0 0.0 0.0 0.0 0.0 0.0 0.0 0.0 0.0 0.0 0.0 0.0 0.0 0.0 0.0 0.0 0.0 0.0 0.0 0.0 0.0 0.0 0.0 0.0 0.0 0.0 0.0 0.0 0.0 0.0 0.0 0.0 0.0 0.0
-0.5126999999999999 66.563 -0.3775 -1.159812 -49.323145 0.539025 -0.460737 -0.642159 144.340143 3.976773 -9.816274 -150.348137 4.521545 0.419324 171.307943 2.055339 53.459017 -174.91847 149.418608 8.50299 -30.423195 121.070938 23.049523 -39.69079 -85.706569 -26.102812 174.527668 -23.637902 -81.695534 -31.672529 94.217311 28.706349 -115.238602 118.791098 -22.170665 -122.343853 127.023822 -76.822351 -172.768315 -8.027922 45.897911 -120.621199 -14.599807 15.745851 -157.584854 -161.881429 12.152278 31.314368 152.300078 3.766532 -115.67914 17.082907 -66.229064 54.75069 88.01343 31.236483 -82.970257 -110.243724 -71.440043 -84.990295 44.325802 15.471611 -46.22878 -90.811484 -34.220935 -70.510011 -74.618418 7.714226 -17.227547 -17.54738 62.749107 7.19814 -101.958107 64.011313 -83.718639 -41.933857 37.146539 103.459177 171.169865 -8.643954 -49.397857 144.473551 3.122301 -146.361192 3.502086 -40.822112 143.380493 92.215751 46.683074 134.803475 173.619375 4.385979 169.498403 -10.003907 -27.568683 -49.176789 -92.319492 46.297419 97.682897 -88.015371 0.933194 -31.294032 -19.562502 -3.085605 77.385013 162.14432 25.112918 -179.177362 4.691005 -47.366768 -0.635488 -8.867317 48.173829 11.824828 -5.095492 0.033886 -84.754768 81.243633 36.002066 -81.6421 45.229626 -0.268209 90.049187 -1.200616 43.234007 -178.247515 1.221857 4.446429 144.281573 -68.55685 -3.132606 91.173906
0.3275 60.336800000000004 -1.3712 -4.52865 20.076585 0.900178 0.672113 7.430037 114.541718 -1.722131 2.247445 -100.633308 0.647698 21.020311 -104.7012 44.818483 1.914926 70.32303 -165.230676 9.292503 64.180627 5.350559 -0.761054 -16.179322 -4.829533 -12.331646 -9.977263 -102.425727 0.189836 -172.025908 3.502532 17.331094 -87.050627 174.586912 -16.131915 131.984565 31.824706 -9.912355 0.610119 86.151139 -71.347344 46.552195 -106.182653 -45.125479 155.463492 -30.45976 -50.904817 -164.180314 -136.692998 38.817995 64.712771 -170.285098 3.842268 63.332072 -35.419777 63.08546 102.992261 0.802922 16.264151 -75.026778 -13.41991 -53.386359 25.180167 91.950873 23.334757 -66.158368 12.338684 19.42645 -32.1846 56.396913 51.339332 -117.544308 -61.025196 68.560311 129.46516 170.842864 9.391154 -129.977557 -91.656609 -35.922662 -50.347115 -179.129412 -29.444699 -162.8723 -0.66309 37.736069 40.881984 -20.816549 -21.752864 -72.088342 141.536303 14.067924 -150.382715 38.525614 58.284169 -39.378748 -74.796889 -80.706036 -23.184541 120.159118 22.245178 -108.193105 0.479038 -9.529135 -30.326419 39.783513 -38.155411 57.140802 -38.512712 -8.074558 0.0 24.315678 -16.363307 58.056408 44.148815 -2.984078 32.918329 27.979235 22.649247 -118.548105 -76.162855 45.561408 -79.537136 128.213128 60.362087 -0.0 -12.993877 39.046979 112.653084 -134.053502 -11.047674 66.723661
1.2643 61.57280000000001 -2.7641 -2.469785 21.944886 0.785267 0.415014 10.684292 177.762588 0.849438 5.430652 -175.163291 0.214674 30.939012 -118.812905 43.270249 13.997467 83.784589 -25.531701 -12.308498 50.900924 -19.004686 4.05499 -23.883736 -5.306216 0.106485 3.085218 65.389841 7.263638 -3.277853 -84.276074 22.404884 77.743593 38.537071 -58.919105 17.808442 -78.789309 45.013627 53.247356 -124.711427 23.787346 78.769216 78.306319 -65.874137 27.460641 8.005104 29.161844 12.322903 111.256078 -48.354952 97.694945 168.952204 -50.46838 -173.722413 25.974848 1.06176 16.196736 -35.674071 16.429337 -9.97652 -13.19676 -44.484675 12.704011 15.53062 56.835111 -3.199275 141.635104 36.364107 -144.111277 144.300246 48.487155 -95.040592 69.863299 -72.81261 135.936546 -162.886092 -35.440034 -135.789741 158.979101 24.572109 -66.701382 108.866867 -33.240478 -18.238131 -166.135068 -65.703359 -102.040813 146.908352 -18.315714 -93.78714 -175.787051 -66.564238 -139.939382 -88.977031 -69.60859 -73.491271 11.082365 -26.358783 3.584016 172.939216 7.953169 -165.837832 132.374065 49.5663 -142.528226 175.738969 -54.21464 176.510892 -170.467884 39.728493 -14.720206 157.137179 10.906543 -97.565282 -48.676712 9.662399 115.169241 -81.397357 29.03912 17.838794 -6.263847 -1.728679 7.91941 23.979766 -30.651619 -155.600499 -34.862626 -60.799237 -66.883001 173.774934 32.359575 122.68427
1.7673999999999999 67.3866 -3.6759 -1.572714 23.232482 0.367028 -2.652124 13.060145 -0.0 4.261726 -6.242757 -10.710031 6.89912 21.057648 77.722404 -40.374747 2.707822 -97.491442 -1.652913 -0.493761 33.262049 1.933596 -0.109742 -6.496077 -23.106445 28.837869 26.759322 -106.87484 -4.251412 152.992814 -0.663287 -15.178515 -82.51771 163.702402 -27.804836 133.630963 -162.950476 -9.788534 89.506189 174.209954 -60.530843 99.835273 -165.506283 -22.862227 109.632922 -167.013752 -14.048321 120.194366 -156.82452 -14.380432 123.724052 0.083194 3.088518 55.300666 -142.066975 -32.338779 172.533283 -124.957842 25.907102 135.026976 -129.637025 52.150878 171.271052 -13.59847 -36.462549 -41.970318 64.539109 -72.526728 87.941508 -27.666712 3.50072 54.449007 -47.828876 83.131913 14.909635 5.538515 18.544853 -3.004424 8.02468 -11.299589 -9.238237 3.830533 -65.496287 87.348878 10.841161 19.618067 -9.609645 3.68082 -14.09337 19.963911 171.643676 -40.137616 -150.663259 -178.415525 -26.144884 -133.444146 136.317874 -53.00808 141.837408 133.436427 38.554587 -154.139618 54.230034 -48.741354 16.951678 -21.375876 -6.154209 42.026718 -173.803042 55.644835 -0.0 154.731101 20.748753 8.997997 1.646856 59.757117 -125.295345 -169.475973 73.422617 -105.705068 62.929214 49.886507 60.148218 -81.849623 11.807868 -27.169412 18.883574 51.472512 -104.324746 16.570905 33.224373 77.599665
1.9057000000000002 71.0287 -4.1485 -1.74066 25.132346 0.747092 -3.597681 5.929217 -148.672959 -6.149075 3.63128 129.103825 -21.326068 30.746969 -119.206366 40.261191 40.600067 90.098551 2.738577 0.697643 28.578933 18.049956 1.150144 7.23192 -33.272124 31.846822 37.226121 73.461699 -6.248132 32.915589 8.303054 -8.123665 47.791251 -10.145198 35.505254 -7.17234 -77.17583 27.773292 45.765741 167.854208 -61.933101 82.092202 -29.577057 23.378458 30.321702 -90.840503 56.16607 67.17242 -14.972688 36.493938 37.221457 62.566325 44.472296 -67.355722 -124.836708 30.192731 143.815337 41.326538 5.144506 11.75661 -4.29666 13.715152 35.738046 -99.51071 -27.531141 -84.918159 -10.468901 26.253329 16.840762 -71.675464 1.313679 -34.061135 -87.864339 -41.668821 -64.786731 138.217399 68.840608 -122.154574 -169.921767 -20.911615 -81.931095 -173.47472 -4.087781 -89.184375 23.392795 33.133288 -17.86333 171.658014 -12.613443 -123.114325 1.900092 -22.239621 10.703615 -4.857723 0.574305 5.121234 8.906154 44.108007 -4.82474 6.426199 -43.244479 19.811778 -12.32514 68.931326 1.817895 48.211295 64.024915 -86.286356 34.483763 2.874859 16.142212 -62.819443 -18.90829 99.447584 56.368331 -38.962048 80.428761 74.538834 -1.025931 179.330688 -94.335353 53.868601 -70.358746 152.642164 59.291176 -60.713838 -51.552821 26.162781 -176.838536 -163.182071 25.199412 80.77874
1.8543 72.9477 -4.2440999999999995 -1.877449 25.958564 1.493923 -5.897433 8.683887 0.649754 9.846437 -4.621962 -21.262374 -25.284718 16.775768 -41.131856 42.568329 -9.140439 27.747194 5.578969 1.444432 29.010544 24.570134 1.984504 9.094934 -88.405694 47.825471 85.737854 -105.955196 8.774812 105.833571 -142.950745 4.282173 -148.096872 2.545235 -1.947287 -9.761986 -9.863315 3.223127 18.430617 -115.662371 -5.794609 114.77663 8.108568 -1.386788 11.957541 2.73704 -7.638779 -9.563105 -11.678011 37.784902 36.72399 -156.212758 9.006931 -163.958508 3.506588 -4.969411 25.48232 -173.69318 4.135409 -146.121187 -145.900103 -8.582555 -176.35283 18.859461 -44.41828 27.73889 -17.445527 52.3016 12.409214 -74.722625 -11.81045 -56.843813 -92.433432 -43.207887 -71.673357 155.606116 63.305535 -138.757077 -4.137889 -4.575365 -2.181984 131.449372 -35.316929 -135.29035 72.979205 41.644881 -60.155775 -5.268586 20.68646 10.275193 6.113755 -24.221405 14.138684 170.070304 -50.068296 -143.160549 148.207336 -20.526073 164.129872 -19.359815 -33.011949 3.816838 142.467439 -4.200349 122.924676 134.118024 23.311818 131.973853 -15.700517 -1.698366 -27.122176 9.901641 -26.499234 -0.0 -18.031895 59.37012 -139.392914 -102.914285 42.552691 -168.73727 -8.719235 -15.759877 -0.0 19.836566 -3.582684 -109.648835 -47.864529 -22.598231 -1.766559 -88.705851 73.87252 174.798691
